<?xml version="1.0" encoding="utf-8" standalone="no"?>
<!DOCTYPE svg PUBLIC "-//W3C//DTD SVG 1.1//EN"
  "http://www.w3.org/Graphics/SVG/1.1/DTD/svg11.dtd">
<svg xmlns:xlink="http://www.w3.org/1999/xlink" width="576pt" height="360pt" viewBox="0 0 576 360" xmlns="http://www.w3.org/2000/svg" version="1.1">
 <metadata>
  <rdf:RDF xmlns:dc="http://purl.org/dc/elements/1.1/" xmlns:cc="http://creativecommons.org/ns#" xmlns:rdf="http://www.w3.org/1999/02/22-rdf-syntax-ns#">
   <cc:Work>
    <dc:type rdf:resource="http://purl.org/dc/dcmitype/StillImage"/>
    <dc:date>2026-07-15T19:37:24.641883</dc:date>
    <dc:format>image/svg+xml</dc:format>
    <dc:creator>
     <cc:Agent>
      <dc:title>Matplotlib v3.10.8, https://matplotlib.org/</dc:title>
     </cc:Agent>
    </dc:creator>
   </cc:Work>
  </rdf:RDF>
 </metadata>
 <defs>
  <style type="text/css">*{stroke-linejoin: round; stroke-linecap: butt}</style>
 </defs>
 <g id="figure_1">
  <g id="patch_1">
   <path d="M 0 360 
L 576 360 
L 576 0 
L 0 0 
z
" style="fill: #ffffff"/>
  </g>
  <g id="axes_1">
   <g id="patch_2">
    <path d="M 109.06 325.96 
L 567.36 325.96 
L 567.36 8.64 
L 109.06 8.64 
z
" style="fill: #ffffff"/>
   </g>
   <g id="patch_3">
    <path d="M 109.06 23.063636 
L 507.581739 23.063636 
L 507.581739 40.322688 
L 109.06 40.322688 
z
" clip-path="url(#p91554bafbb)" style="fill: #c44e52; stroke: #ffffff; stroke-width: 0.5; stroke-linejoin: miter"/>
   </g>
   <g id="patch_4">
    <path d="M 109.06 47.719425 
L 506.191747 47.719425 
L 506.191747 64.978477 
L 109.06 64.978477 
z
" clip-path="url(#p91554bafbb)" style="fill: #dd8452; stroke: #ffffff; stroke-width: 0.5; stroke-linejoin: miter"/>
   </g>
   <g id="patch_5">
    <path d="M 109.06 72.375214 
L 460.603265 72.375214 
L 460.603265 89.634266 
L 109.06 89.634266 
z
" clip-path="url(#p91554bafbb)" style="fill: #4c72b0; stroke: #ffffff; stroke-width: 0.5; stroke-linejoin: miter"/>
   </g>
   <g id="patch_6">
    <path d="M 109.06 97.031002 
L 419.410894 97.031002 
L 419.410894 114.290054 
L 109.06 114.290054 
z
" clip-path="url(#p91554bafbb)" style="fill: url(#h2b092ea79e); stroke: #ffffff; stroke-width: 0.5; stroke-linejoin: miter"/>
   </g>
   <g id="patch_7">
    <path d="M 109.06 121.686791 
L 397.032579 121.686791 
L 397.032579 138.945843 
L 109.06 138.945843 
z
" clip-path="url(#p91554bafbb)" style="fill: url(#h092d140e8b); stroke: #ffffff; stroke-width: 0.5; stroke-linejoin: miter"/>
   </g>
   <g id="patch_8">
    <path d="M 109.06 146.34258 
L 383.519111 146.34258 
L 383.519111 163.601632 
L 109.06 163.601632 
z
" clip-path="url(#p91554bafbb)" style="fill: #55a467; stroke: #ffffff; stroke-width: 0.5; stroke-linejoin: miter"/>
   </g>
   <g id="patch_9">
    <path d="M 109.06 170.998368 
L 381.452701 170.998368 
L 381.452701 188.25742 
L 109.06 188.25742 
z
" clip-path="url(#p91554bafbb)" style="fill: url(#ha1aa749467); stroke: #ffffff; stroke-width: 0.5; stroke-linejoin: miter"/>
   </g>
   <g id="patch_10">
    <path d="M 109.06 195.654157 
L 328.335513 195.654157 
L 328.335513 212.913209 
L 109.06 212.913209 
z
" clip-path="url(#p91554bafbb)" style="fill: url(#ha372c9a9d1); stroke: #ffffff; stroke-width: 0.5; stroke-linejoin: miter"/>
   </g>
   <g id="patch_11">
    <path d="M 109.06 220.309946 
L 302.178714 220.309946 
L 302.178714 237.568998 
L 109.06 237.568998 
z
" clip-path="url(#p91554bafbb)" style="fill: #8172b2; stroke: #ffffff; stroke-width: 0.5; stroke-linejoin: miter"/>
   </g>
   <g id="patch_12">
    <path d="M 109.06 244.965734 
L 254.642276 244.965734 
L 254.642276 262.224786 
L 109.06 262.224786 
z
" clip-path="url(#p91554bafbb)" style="fill: url(#hbf8c95851c); stroke: #ffffff; stroke-width: 0.5; stroke-linejoin: miter"/>
   </g>
   <g id="patch_13">
    <path d="M 109.06 269.621523 
L 245.595873 269.621523 
L 245.595873 286.880575 
L 109.06 286.880575 
z
" clip-path="url(#p91554bafbb)" style="fill: url(#hc8b919c00e); stroke: #ffffff; stroke-width: 0.5; stroke-linejoin: miter"/>
   </g>
   <g id="patch_14">
    <path d="M 109.06 294.277312 
L 227.352766 294.277312 
L 227.352766 311.536364 
L 109.06 311.536364 
z
" clip-path="url(#p91554bafbb)" style="fill: url(#h952efd1f60); stroke: #ffffff; stroke-width: 0.5; stroke-linejoin: miter"/>
   </g>
   <g id="matplotlib.axis_1">
    <g id="xtick_1">
     <g id="line2d_1">
      <path d="M 109.06 325.96 
L 109.06 8.64 
" clip-path="url(#p91554bafbb)" style="fill: none; stroke: #b0b0b0; stroke-opacity: 0.15; stroke-width: 0.4; stroke-linecap: square"/>
     </g>
     <g id="line2d_2">
      <defs>
       <path id="m5582146b50" d="M 0 0 
L 0 3.5 
" style="stroke: #000000; stroke-width: 0.8"/>
      </defs>
      <g>
       <use xlink:href="#m5582146b50" x="109.06" y="325.96" style="stroke: #000000; stroke-width: 0.8"/>
      </g>
     </g>
     <g id="text_1">
      <text style="font-size: 7px; font-family: 'Arial', 'DejaVu Sans', 'Liberation Sans', sans-serif; text-anchor: middle" x="109.06" y="338.278906" transform="rotate(-0 109.06 338.278906)">0.0</text>
     </g>
    </g>
    <g id="xtick_2">
     <g id="line2d_3">
      <path d="M 180.041828 325.96 
L 180.041828 8.64 
" clip-path="url(#p91554bafbb)" style="fill: none; stroke: #b0b0b0; stroke-opacity: 0.15; stroke-width: 0.4; stroke-linecap: square"/>
     </g>
     <g id="line2d_4">
      <g>
       <use xlink:href="#m5582146b50" x="180.041828" y="325.96" style="stroke: #000000; stroke-width: 0.8"/>
      </g>
     </g>
     <g id="text_2">
      <text style="font-size: 7px; font-family: 'Arial', 'DejaVu Sans', 'Liberation Sans', sans-serif; text-anchor: middle" x="180.041828" y="338.278906" transform="rotate(-0 180.041828 338.278906)">0.1</text>
     </g>
    </g>
    <g id="xtick_3">
     <g id="line2d_5">
      <path d="M 251.023656 325.96 
L 251.023656 8.64 
" clip-path="url(#p91554bafbb)" style="fill: none; stroke: #b0b0b0; stroke-opacity: 0.15; stroke-width: 0.4; stroke-linecap: square"/>
     </g>
     <g id="line2d_6">
      <g>
       <use xlink:href="#m5582146b50" x="251.023656" y="325.96" style="stroke: #000000; stroke-width: 0.8"/>
      </g>
     </g>
     <g id="text_3">
      <text style="font-size: 7px; font-family: 'Arial', 'DejaVu Sans', 'Liberation Sans', sans-serif; text-anchor: middle" x="251.023656" y="338.278906" transform="rotate(-0 251.023656 338.278906)">0.2</text>
     </g>
    </g>
    <g id="xtick_4">
     <g id="line2d_7">
      <path d="M 322.005484 325.96 
L 322.005484 8.64 
" clip-path="url(#p91554bafbb)" style="fill: none; stroke: #b0b0b0; stroke-opacity: 0.15; stroke-width: 0.4; stroke-linecap: square"/>
     </g>
     <g id="line2d_8">
      <g>
       <use xlink:href="#m5582146b50" x="322.005484" y="325.96" style="stroke: #000000; stroke-width: 0.8"/>
      </g>
     </g>
     <g id="text_4">
      <text style="font-size: 7px; font-family: 'Arial', 'DejaVu Sans', 'Liberation Sans', sans-serif; text-anchor: middle" x="322.005484" y="338.278906" transform="rotate(-0 322.005484 338.278906)">0.3</text>
     </g>
    </g>
    <g id="xtick_5">
     <g id="line2d_9">
      <path d="M 392.987312 325.96 
L 392.987312 8.64 
" clip-path="url(#p91554bafbb)" style="fill: none; stroke: #b0b0b0; stroke-opacity: 0.15; stroke-width: 0.4; stroke-linecap: square"/>
     </g>
     <g id="line2d_10">
      <g>
       <use xlink:href="#m5582146b50" x="392.987312" y="325.96" style="stroke: #000000; stroke-width: 0.8"/>
      </g>
     </g>
     <g id="text_5">
      <text style="font-size: 7px; font-family: 'Arial', 'DejaVu Sans', 'Liberation Sans', sans-serif; text-anchor: middle" x="392.987312" y="338.278906" transform="rotate(-0 392.987312 338.278906)">0.4</text>
     </g>
    </g>
    <g id="xtick_6">
     <g id="line2d_11">
      <path d="M 463.969141 325.96 
L 463.969141 8.64 
" clip-path="url(#p91554bafbb)" style="fill: none; stroke: #b0b0b0; stroke-opacity: 0.15; stroke-width: 0.4; stroke-linecap: square"/>
     </g>
     <g id="line2d_12">
      <g>
       <use xlink:href="#m5582146b50" x="463.969141" y="325.96" style="stroke: #000000; stroke-width: 0.8"/>
      </g>
     </g>
     <g id="text_6">
      <text style="font-size: 7px; font-family: 'Arial', 'DejaVu Sans', 'Liberation Sans', sans-serif; text-anchor: middle" x="463.969141" y="338.278906" transform="rotate(-0 463.969141 338.278906)">0.5</text>
     </g>
    </g>
    <g id="xtick_7">
     <g id="line2d_13">
      <path d="M 534.950969 325.96 
L 534.950969 8.64 
" clip-path="url(#p91554bafbb)" style="fill: none; stroke: #b0b0b0; stroke-opacity: 0.15; stroke-width: 0.4; stroke-linecap: square"/>
     </g>
     <g id="line2d_14">
      <g>
       <use xlink:href="#m5582146b50" x="534.950969" y="325.96" style="stroke: #000000; stroke-width: 0.8"/>
      </g>
     </g>
     <g id="text_7">
      <text style="font-size: 7px; font-family: 'Arial', 'DejaVu Sans', 'Liberation Sans', sans-serif; text-anchor: middle" x="534.950969" y="338.278906" transform="rotate(-0 534.950969 338.278906)">0.6</text>
     </g>
    </g>
    <g id="text_8">
     <text style="font-size: 8px; font-family: 'Arial', 'DejaVu Sans', 'Liberation Sans', sans-serif; text-anchor: middle" x="338.21" y="349.813438" transform="rotate(-0 338.21 349.813438)">AUPRC</text>
    </g>
   </g>
   <g id="matplotlib.axis_2">
    <g id="ytick_1">
     <g id="line2d_15">
      <defs>
       <path id="m5f6e9f1de9" d="M 0 0 
L -3.5 0 
" style="stroke: #000000; stroke-width: 0.8"/>
      </defs>
      <g>
       <use xlink:href="#m5f6e9f1de9" x="109.06" y="31.693162" style="stroke: #000000; stroke-width: 0.8"/>
      </g>
     </g>
     <g id="text_9">
      <text style="font-size: 7px; font-family: 'Arial', 'DejaVu Sans', 'Liberation Sans', sans-serif; text-anchor: end" x="102.06" y="34.352616" transform="rotate(-0 102.06 34.352616)">LLM-CFDMiner (avg)</text>
     </g>
    </g>
    <g id="ytick_2">
     <g id="line2d_16">
      <g>
       <use xlink:href="#m5f6e9f1de9" x="109.06" y="56.348951" style="stroke: #000000; stroke-width: 0.8"/>
      </g>
     </g>
     <g id="text_10">
      <text style="font-size: 7px; font-family: 'Arial', 'DejaVu Sans', 'Liberation Sans', sans-serif; text-anchor: end" x="102.06" y="59.008404" transform="rotate(-0 102.06 59.008404)">LLM-CFDMiner (filtered)</text>
     </g>
    </g>
    <g id="ytick_3">
     <g id="line2d_17">
      <g>
       <use xlink:href="#m5f6e9f1de9" x="109.06" y="81.00474" style="stroke: #000000; stroke-width: 0.8"/>
      </g>
     </g>
     <g id="text_11">
      <text style="font-size: 7px; font-family: 'Arial', 'DejaVu Sans', 'Liberation Sans', sans-serif; text-anchor: end" x="102.06" y="83.664193" transform="rotate(-0 102.06 83.664193)">LLM-CFD</text>
     </g>
    </g>
    <g id="ytick_4">
     <g id="line2d_18">
      <g>
       <use xlink:href="#m5f6e9f1de9" x="109.06" y="105.660528" style="stroke: #000000; stroke-width: 0.8"/>
      </g>
     </g>
     <g id="text_12">
      <text style="font-size: 7px; font-family: 'Arial', 'DejaVu Sans', 'Liberation Sans', sans-serif; text-anchor: end" x="102.06" y="108.319981" transform="rotate(-0 102.06 108.319981)">LLM-CFD+COPOD (w)</text>
     </g>
    </g>
    <g id="ytick_5">
     <g id="line2d_19">
      <g>
       <use xlink:href="#m5f6e9f1de9" x="109.06" y="130.316317" style="stroke: #000000; stroke-width: 0.8"/>
      </g>
     </g>
     <g id="text_13">
      <text style="font-size: 7px; font-family: 'Arial', 'DejaVu Sans', 'Liberation Sans', sans-serif; text-anchor: end" x="102.06" y="132.97577" transform="rotate(-0 102.06 132.97577)">LLM-CFD+EIF (w)</text>
     </g>
    </g>
    <g id="ytick_6">
     <g id="line2d_20">
      <g>
       <use xlink:href="#m5f6e9f1de9" x="109.06" y="154.972106" style="stroke: #000000; stroke-width: 0.8"/>
      </g>
     </g>
     <g id="text_14">
      <text style="font-size: 7px; font-family: 'Arial', 'DejaVu Sans', 'Liberation Sans', sans-serif; text-anchor: end" x="102.06" y="157.631559" transform="rotate(-0 102.06 157.631559)">CFDMiner</text>
     </g>
    </g>
    <g id="ytick_7">
     <g id="line2d_21">
      <g>
       <use xlink:href="#m5f6e9f1de9" x="109.06" y="179.627894" style="stroke: #000000; stroke-width: 0.8"/>
      </g>
     </g>
     <g id="text_15">
      <text style="font-size: 7px; font-family: 'Arial', 'DejaVu Sans', 'Liberation Sans', sans-serif; text-anchor: end" x="102.06" y="182.287347" transform="rotate(-0 102.06 182.287347)">LLM-CFD+EIF+COPOD</text>
     </g>
    </g>
    <g id="ytick_8">
     <g id="line2d_22">
      <g>
       <use xlink:href="#m5f6e9f1de9" x="109.06" y="204.283683" style="stroke: #000000; stroke-width: 0.8"/>
      </g>
     </g>
     <g id="text_16">
      <text style="font-size: 7px; font-family: 'Arial', 'DejaVu Sans', 'Liberation Sans', sans-serif; text-anchor: end" x="102.06" y="206.943136" transform="rotate(-0 102.06 206.943136)">LLM-CFD+COPOD (simple)</text>
     </g>
    </g>
    <g id="ytick_9">
     <g id="line2d_23">
      <g>
       <use xlink:href="#m5f6e9f1de9" x="109.06" y="228.939472" style="stroke: #000000; stroke-width: 0.8"/>
      </g>
     </g>
     <g id="text_17">
      <text style="font-size: 7px; font-family: 'Arial', 'DejaVu Sans', 'Liberation Sans', sans-serif; text-anchor: end" x="102.06" y="231.598925" transform="rotate(-0 102.06 231.598925)">CTANE</text>
     </g>
    </g>
    <g id="ytick_10">
     <g id="line2d_24">
      <g>
       <use xlink:href="#m5f6e9f1de9" x="109.06" y="253.59526" style="stroke: #000000; stroke-width: 0.8"/>
      </g>
     </g>
     <g id="text_18">
      <text style="font-size: 7px; font-family: 'Arial', 'DejaVu Sans', 'Liberation Sans', sans-serif; text-anchor: end" x="102.06" y="256.254713" transform="rotate(-0 102.06 256.254713)">EIF</text>
     </g>
    </g>
    <g id="ytick_11">
     <g id="line2d_25">
      <g>
       <use xlink:href="#m5f6e9f1de9" x="109.06" y="278.251049" style="stroke: #000000; stroke-width: 0.8"/>
      </g>
     </g>
     <g id="text_19">
      <text style="font-size: 7px; font-family: 'Arial', 'DejaVu Sans', 'Liberation Sans', sans-serif; text-anchor: end" x="102.06" y="280.910502" transform="rotate(-0 102.06 280.910502)">EIF+COPOD</text>
     </g>
    </g>
    <g id="ytick_12">
     <g id="line2d_26">
      <g>
       <use xlink:href="#m5f6e9f1de9" x="109.06" y="302.906838" style="stroke: #000000; stroke-width: 0.8"/>
      </g>
     </g>
     <g id="text_20">
      <text style="font-size: 7px; font-family: 'Arial', 'DejaVu Sans', 'Liberation Sans', sans-serif; text-anchor: end" x="102.06" y="305.566291" transform="rotate(-0 102.06 305.566291)">COPOD</text>
     </g>
    </g>
   </g>
   <g id="line2d_27">
    <path d="M 460.603265 325.96 
L 460.603265 8.64 
" clip-path="url(#p91554bafbb)" style="fill: none; stroke-dasharray: 2.96,1.28; stroke-dashoffset: 0; stroke: #4c72b0; stroke-opacity: 0.4; stroke-width: 0.8"/>
   </g>
   <g id="line2d_28">
    <path d="M 229.01929 325.96 
L 229.01929 8.64 
" clip-path="url(#p91554bafbb)" style="fill: none; stroke-dasharray: 0.8,1.32; stroke-dashoffset: 0; stroke: #bbbbbb; stroke-width: 0.8"/>
   </g>
   <g id="patch_15">
    <path d="M 109.06 325.96 
L 109.06 8.64 
" style="fill: none; stroke: #000000; stroke-width: 0.6; stroke-linejoin: miter; stroke-linecap: square"/>
   </g>
   <g id="patch_16">
    <path d="M 109.06 325.96 
L 567.36 325.96 
" style="fill: none; stroke: #000000; stroke-width: 0.6; stroke-linejoin: miter; stroke-linecap: square"/>
   </g>
   <g id="text_21">
    <text style="font-weight: 700; font-size: 7px; font-family: 'Arial', 'DejaVu Sans', 'Liberation Sans', sans-serif; text-anchor: start" x="511.130831" y="33.624725" transform="rotate(-0 511.130831 33.624725)">0.561</text>
   </g>
   <g id="text_22">
    <text style="font-weight: 700; font-size: 7px; font-family: 'Arial', 'DejaVu Sans', 'Liberation Sans', sans-serif; text-anchor: start" x="509.740839" y="58.280514" transform="rotate(-0 509.740839 58.280514)">0.559</text>
   </g>
   <g id="text_23">
    <text style="font-weight: 700; font-size: 7px; font-family: 'Arial', 'DejaVu Sans', 'Liberation Sans', sans-serif; text-anchor: start" x="464.152356" y="82.936302" transform="rotate(-0 464.152356 82.936302)">0.495</text>
   </g>
   <g id="text_24">
    <text style="font-weight: 700; font-size: 7px; font-family: 'Arial', 'DejaVu Sans', 'Liberation Sans', sans-serif; text-anchor: start" x="422.959985" y="107.592091" transform="rotate(-0 422.959985 107.592091)">0.437</text>
   </g>
   <g id="text_25">
    <text style="font-weight: 700; font-size: 7px; font-family: 'Arial', 'DejaVu Sans', 'Liberation Sans', sans-serif; text-anchor: start" x="400.581671" y="132.24788" transform="rotate(-0 400.581671 132.24788)">0.406</text>
   </g>
   <g id="text_26">
    <text style="font-weight: 700; font-size: 7px; font-family: 'Arial', 'DejaVu Sans', 'Liberation Sans', sans-serif; text-anchor: start" x="387.068202" y="156.903668" transform="rotate(-0 387.068202 156.903668)">0.387</text>
   </g>
   <g id="text_27">
    <text style="font-weight: 700; font-size: 7px; font-family: 'Arial', 'DejaVu Sans', 'Liberation Sans', sans-serif; text-anchor: start" x="385.001793" y="181.559457" transform="rotate(-0 385.001793 181.559457)">0.384</text>
   </g>
   <g id="text_28">
    <text style="font-weight: 700; font-size: 7px; font-family: 'Arial', 'DejaVu Sans', 'Liberation Sans', sans-serif; text-anchor: start" x="331.884605" y="206.215245" transform="rotate(-0 331.884605 206.215245)">0.309</text>
   </g>
   <g id="text_29">
    <text style="font-weight: 700; font-size: 7px; font-family: 'Arial', 'DejaVu Sans', 'Liberation Sans', sans-serif; text-anchor: start" x="305.727805" y="230.871034" transform="rotate(-0 305.727805 230.871034)">0.272</text>
   </g>
   <g id="text_30">
    <text style="font-weight: 700; font-size: 7px; font-family: 'Arial', 'DejaVu Sans', 'Liberation Sans', sans-serif; text-anchor: start" x="258.191368" y="255.526823" transform="rotate(-0 258.191368 255.526823)">0.205</text>
   </g>
   <g id="text_31">
    <text style="font-weight: 700; font-size: 7px; font-family: 'Arial', 'DejaVu Sans', 'Liberation Sans', sans-serif; text-anchor: start" x="249.144964" y="280.182611" transform="rotate(-0 249.144964 280.182611)">0.192</text>
   </g>
   <g id="text_32">
    <text style="font-weight: 700; font-size: 7px; font-family: 'Arial', 'DejaVu Sans', 'Liberation Sans', sans-serif; text-anchor: start" x="230.901857" y="304.8384" transform="rotate(-0 230.901857 304.8384)">0.167</text>
   </g>
   <g id="legend_1">
    <g id="patch_17">
     <path d="M 469.595625 322.96 
L 564.36 322.96 
L 564.36 277.125625 
L 469.595625 277.125625 
z
" style="fill: #ffffff; opacity: 0.9; stroke: #cccccc; stroke-linejoin: miter"/>
    </g>
    <g id="patch_18">
     <path d="M 471.995625 284.084688 
L 483.995625 284.084688 
L 483.995625 279.884688 
L 471.995625 279.884688 
z
" style="fill: #c44e52; stroke: #ffffff; stroke-linejoin: miter"/>
    </g>
    <g id="text_33">
     <text style="font-size: 6px; font-family: 'Arial', 'DejaVu Sans', 'Liberation Sans', sans-serif; text-anchor: start" x="488.795625" y="284.084688" transform="rotate(-0 488.795625 284.084688)">LLM-CFDMiner (best)</text>
    </g>
    <g id="patch_19">
     <path d="M 471.995625 292.891563 
L 483.995625 292.891563 
L 483.995625 288.691563 
L 471.995625 288.691563 
z
" style="fill: #4c72b0; stroke: #ffffff; stroke-linejoin: miter"/>
    </g>
    <g id="text_34">
     <text style="font-size: 6px; font-family: 'Arial', 'DejaVu Sans', 'Liberation Sans', sans-serif; text-anchor: start" x="488.795625" y="292.891563" transform="rotate(-0 488.795625 292.891563)">LLM-CFD</text>
    </g>
    <g id="patch_20">
     <path d="M 471.995625 301.698438 
L 483.995625 301.698438 
L 483.995625 297.498438 
L 471.995625 297.498438 
z
" style="fill: #55a467; stroke: #ffffff; stroke-linejoin: miter"/>
    </g>
    <g id="text_35">
     <text style="font-size: 6px; font-family: 'Arial', 'DejaVu Sans', 'Liberation Sans', sans-serif; text-anchor: start" x="488.795625" y="301.698438" transform="rotate(-0 488.795625 301.698438)">CFD discovery baselines</text>
    </g>
    <g id="patch_21">
     <path d="M 471.995625 310.505313 
L 483.995625 310.505313 
L 483.995625 306.305313 
L 471.995625 306.305313 
z
" style="fill: url(#hbf8c95851c); stroke: #ffffff; stroke-linejoin: miter"/>
    </g>
    <g id="text_36">
     <text style="font-size: 6px; font-family: 'Arial', 'DejaVu Sans', 'Liberation Sans', sans-serif; text-anchor: start" x="488.795625" y="310.505313" transform="rotate(-0 488.795625 310.505313)">Statistical baselines</text>
    </g>
    <g id="patch_22">
     <path d="M 471.995625 319.312188 
L 483.995625 319.312188 
L 483.995625 315.112188 
L 471.995625 315.112188 
z
" style="fill: url(#h2b092ea79e); stroke: #ffffff; stroke-linejoin: miter"/>
    </g>
    <g id="text_37">
     <text style="font-size: 6px; font-family: 'Arial', 'DejaVu Sans', 'Liberation Sans', sans-serif; text-anchor: start" x="488.795625" y="319.312188" transform="rotate(-0 488.795625 319.312188)">Fusion methods</text>
    </g>
   </g>
  </g>
 </g>
 <defs>
  <clipPath id="p91554bafbb">
   <rect x="109.06" y="8.64" width="458.3" height="317.32"/>
  </clipPath>
 </defs>
 <defs>
  <pattern id="h2b092ea79e" patternUnits="userSpaceOnUse" x="0" y="0" width="72" height="72">
   <rect x="0" y="0" width="73" height="73" fill="#da8bc3"/>
   <path d="M -36 36 
L 36 -36 
M -30 42 
L 42 -30 
M -24 48 
L 48 -24 
M -18 54 
L 54 -18 
M -12 60 
L 60 -12 
M -6 66 
L 66 -6 
M 0 72 
L 72 0 
M 6 78 
L 78 6 
M 12 84 
L 84 12 
M 18 90 
L 90 18 
M 24 96 
L 96 24 
M 30 102 
L 102 30 
M 36 108 
L 108 36 
M -36 36 
L 36 108 
M -30 30 
L 42 102 
M -24 24 
L 48 96 
M -18 18 
L 54 90 
M -12 12 
L 60 84 
M -6 6 
L 66 78 
M 0 0 
L 72 72 
M 6 -6 
L 78 66 
M 12 -12 
L 84 60 
M 18 -18 
L 90 54 
M 24 -24 
L 96 48 
M 30 -30 
L 102 42 
M 36 -36 
L 108 36 
" style="fill: #ffffff; stroke: #ffffff; stroke-width: 1.0; stroke-linecap: butt; stroke-linejoin: miter"/>
  </pattern>
  <pattern id="h092d140e8b" patternUnits="userSpaceOnUse" x="0" y="0" width="72" height="72">
   <rect x="0" y="0" width="73" height="73" fill="#a98679"/>
   <path d="M -36 36 
L 36 -36 
M -30 42 
L 42 -30 
M -24 48 
L 48 -24 
M -18 54 
L 54 -18 
M -12 60 
L 60 -12 
M -6 66 
L 66 -6 
M 0 72 
L 72 0 
M 6 78 
L 78 6 
M 12 84 
L 84 12 
M 18 90 
L 90 18 
M 24 96 
L 96 24 
M 30 102 
L 102 30 
M 36 108 
L 108 36 
M -36 36 
L 36 108 
M -30 30 
L 42 102 
M -24 24 
L 48 96 
M -18 18 
L 54 90 
M -12 12 
L 60 84 
M -6 6 
L 66 78 
M 0 0 
L 72 72 
M 6 -6 
L 78 66 
M 12 -12 
L 84 60 
M 18 -18 
L 90 54 
M 24 -24 
L 96 48 
M 30 -30 
L 102 42 
M 36 -36 
L 108 36 
" style="fill: #ffffff; stroke: #ffffff; stroke-width: 1.0; stroke-linecap: butt; stroke-linejoin: miter"/>
  </pattern>
  <pattern id="ha1aa749467" patternUnits="userSpaceOnUse" x="0" y="0" width="72" height="72">
   <rect x="0" y="0" width="73" height="73" fill="#937860"/>
   <path d="M -36 36 
L 36 -36 
M -30 42 
L 42 -30 
M -24 48 
L 48 -24 
M -18 54 
L 54 -18 
M -12 60 
L 60 -12 
M -6 66 
L 66 -6 
M 0 72 
L 72 0 
M 6 78 
L 78 6 
M 12 84 
L 84 12 
M 18 90 
L 90 18 
M 24 96 
L 96 24 
M 30 102 
L 102 30 
M 36 108 
L 108 36 
M -36 36 
L 36 108 
M -30 30 
L 42 102 
M -24 24 
L 48 96 
M -18 18 
L 54 90 
M -12 12 
L 60 84 
M -6 6 
L 66 78 
M 0 0 
L 72 72 
M 6 -6 
L 78 66 
M 12 -12 
L 84 60 
M 18 -18 
L 90 54 
M 24 -24 
L 96 48 
M 30 -30 
L 102 42 
M 36 -36 
L 108 36 
" style="fill: #ffffff; stroke: #ffffff; stroke-width: 1.0; stroke-linecap: butt; stroke-linejoin: miter"/>
  </pattern>
  <pattern id="ha372c9a9d1" patternUnits="userSpaceOnUse" x="0" y="0" width="72" height="72">
   <rect x="0" y="0" width="73" height="73" fill="#b0b0b0"/>
   <path d="M -36 36 
L 36 -36 
M -30 42 
L 42 -30 
M -24 48 
L 48 -24 
M -18 54 
L 54 -18 
M -12 60 
L 60 -12 
M -6 66 
L 66 -6 
M 0 72 
L 72 0 
M 6 78 
L 78 6 
M 12 84 
L 84 12 
M 18 90 
L 90 18 
M 24 96 
L 96 24 
M 30 102 
L 102 30 
M 36 108 
L 108 36 
M -36 36 
L 36 108 
M -30 30 
L 42 102 
M -24 24 
L 48 96 
M -18 18 
L 54 90 
M -12 12 
L 60 84 
M -6 6 
L 66 78 
M 0 0 
L 72 72 
M 6 -6 
L 78 66 
M 12 -12 
L 84 60 
M 18 -18 
L 90 54 
M 24 -24 
L 96 48 
M 30 -30 
L 102 42 
M 36 -36 
L 108 36 
" style="fill: #ffffff; stroke: #ffffff; stroke-width: 1.0; stroke-linecap: butt; stroke-linejoin: miter"/>
  </pattern>
  <pattern id="hbf8c95851c" patternUnits="userSpaceOnUse" x="0" y="0" width="72" height="72">
   <rect x="0" y="0" width="73" height="73" fill="#ccb974"/>
   <path d="M -36 36 
L 36 -36 
M -30 42 
L 42 -30 
M -24 48 
L 48 -24 
M -18 54 
L 54 -18 
M -12 60 
L 60 -12 
M -6 66 
L 66 -6 
M 0 72 
L 72 0 
M 6 78 
L 78 6 
M 12 84 
L 84 12 
M 18 90 
L 90 18 
M 24 96 
L 96 24 
M 30 102 
L 102 30 
M 36 108 
L 108 36 
" style="fill: #ffffff; stroke: #ffffff; stroke-width: 1.0; stroke-linecap: butt; stroke-linejoin: miter"/>
  </pattern>
  <pattern id="hc8b919c00e" patternUnits="userSpaceOnUse" x="0" y="0" width="72" height="72">
   <rect x="0" y="0" width="73" height="73" fill="#937860"/>
   <path d="M -36 36 
L 36 -36 
M -30 42 
L 42 -30 
M -24 48 
L 48 -24 
M -18 54 
L 54 -18 
M -12 60 
L 60 -12 
M -6 66 
L 66 -6 
M 0 72 
L 72 0 
M 6 78 
L 78 6 
M 12 84 
L 84 12 
M 18 90 
L 90 18 
M 24 96 
L 96 24 
M 30 102 
L 102 30 
M 36 108 
L 108 36 
" style="fill: #ffffff; stroke: #ffffff; stroke-width: 1.0; stroke-linecap: butt; stroke-linejoin: miter"/>
  </pattern>
  <pattern id="h952efd1f60" patternUnits="userSpaceOnUse" x="0" y="0" width="72" height="72">
   <rect x="0" y="0" width="73" height="73" fill="#64b5cd"/>
   <path d="M -36 36 
L 36 -36 
M -30 42 
L 42 -30 
M -24 48 
L 48 -24 
M -18 54 
L 54 -18 
M -12 60 
L 60 -12 
M -6 66 
L 66 -6 
M 0 72 
L 72 0 
M 6 78 
L 78 6 
M 12 84 
L 84 12 
M 18 90 
L 90 18 
M 24 96 
L 96 24 
M 30 102 
L 102 30 
M 36 108 
L 108 36 
" style="fill: #ffffff; stroke: #ffffff; stroke-width: 1.0; stroke-linecap: butt; stroke-linejoin: miter"/>
  </pattern>
 </defs>
</svg>
